<?xml version="1.0" encoding="UTF-8" standalone="no" ?>
<!DOCTYPE svg PUBLIC "-//W3C//DTD SVG 1.1//EN" "http://www.w3.org/Graphics/SVG/1.1/DTD/svg11.dtd">
<svg xmlns="http://www.w3.org/2000/svg" xmlns:xlink="http://www.w3.org/1999/xlink" version="1.1" width="640" height="480" viewBox="0 0 640 480" xml:space="preserve">
<desc>Created with Fabric.js 3.6.6</desc>
<defs>
</defs>
<g transform="matrix(0.44 0 0 0.44 297.6 199.8)"  >
<path style="stroke: none; stroke-width: 0; stroke-dasharray: none; stroke-linecap: butt; stroke-dashoffset: 0; stroke-linejoin: round; stroke-miterlimit: 4; fill: rgb(14,165,233); fill-rule: nonzero; opacity: 1;" vector-effect="non-scaling-stroke"  transform=" translate(-67.16, -67.49)" d="M 11.347 44.086 c -3.81 -2.299 -10.528 -0.9 -10.93 4.097 c 0 0.2 0 0.4 0.101 0.6 c -1.103 3.497 0.2 7.495 3.309 9.494 c 3.71 2.498 8.021 0.7 10.127 -2.898 c 2.206 -3.798 1.303 -8.795 -2.607 -11.293 z M 9.542 53.28 c -0.802 1.599 -2.306 1.998 -3.81 1.1 c -1.705 -1.1 -2.206 -2.8 -1.805 -4.598 c 1.404 -0.7 2.707 -1.799 4.412 -1.1 c 1.805 0.9 2.106 2.999 1.203 4.598 z M 49.85 39.588 c -1.003 -2.898 -3.309 -5.396 -6.417 -5.996 c -3.008 -0.5 -6.417 1 -8.022 3.498 c -0.2 0.3 -0.3 0.5 -0.3 0.8 C 31 42.886 34.91 52.88 42.23 51.68 c 5.514 -0.799 9.325 -6.795 7.62 -12.092 z m -9.526 7.696 c -1.905 -0.1 -3.409 -1.9 -4.01 -3.598 c -0.602 -1.5 -0.502 -2.898 0.2 -4.098 c 0.301 0.1 0.602 0.1 0.903 0.1 c 1.504 -0.3 3.208 -1.399 4.712 -1.199 c 1.605 0.2 2.808 2.099 3.008 3.598 c 0.301 2.498 -2.206 5.296 -4.813 5.197 z m -3.91 19.987 c -2.406 -4.897 -9.225 -5.896 -12.634 -1.3 c -0.3 0.4 -0.3 0.9 -0.2 1.3 c -5.214 5.496 0.3 16.59 8.322 12.892 c 4.612 -2.299 6.718 -8.395 4.512 -12.892 z m -7.42 8.894 c -1.805 0.8 -3.61 -0.3 -4.612 -1.699 c -1.304 -1.898 -1.203 -4.197 0.2 -5.996 c 0.201 0.1 0.402 0.1 0.602 0.1 c 2.607 -0.1 4.913 -1.499 6.217 1.5 c 1.203 2.298 0 5.096 -2.407 6.095 z m 41.511 -11.892 c -2.306 -6.696 -11.63 -7.695 -15.14 -1.4 c -0.301 0.6 -0.301 1.3 0 1.8 c -0.802 2.098 -0.903 4.397 -0.301 6.495 c 0.902 3.798 4.312 6.796 8.422 5.697 c 5.114 -1.5 8.824 -7.595 7.02 -12.592 z m -9.525 7.795 c -1.705 0.1 -2.808 -1.899 -3.309 -3.298 c -0.401 -1 -0.501 -2.099 -0.501 -3.098 h 0.4 c 2.507 -0.6 6.92 -3.198 7.721 1.2 c 0.401 2.198 -2.005 5.196 -4.311 5.196 z m 27.273 -38.276 c -1.504 -4.497 -6.718 -6.196 -11.03 -4.897 c -0.3 -0.3 -0.802 -0.4 -1.303 0 c -0.2 0.2 -0.502 0.5 -0.702 0.8 c -0.502 0.3 -0.702 0.7 -0.702 1.099 c -2.908 5.197 -2.206 14.39 5.414 13.891 c 5.415 -0.3 10.128 -5.496 8.323 -10.893 z m -9.626 5.796 c -1.404 -0.3 -2.206 -1.998 -2.507 -3.198 a 7.706 7.706 0 10 -3.697 c 2.306 0.5 5.615 0.2 6.618 2.698 c 0.902 2.199 -1.905 4.597 -4.111 4.197 z m 34.292 19.988 c -1.304 -3.998 -5.515 -5.297 -9.325 -3.998 c -0.802 0.3 -1.204 0.9 -1.204 1.5 c -3.208 1.898 -4.812 5.496 -3.208 9.394 c 1.805 4.397 7.019 5.596 10.729 2.598 c 2.807 -2.199 4.211 -6.096 3.008 -9.494 z m -6.317 4.697 c -0.201 0.3 -0.502 0.7 -1.103 0.9 c 0.2 -0.1 -0.502 0.1 -0.502 0.1 c -0.401 0 -0.601 0 -1.002 -0.2 c -1.103 -0.6 -1.705 -2.4 -1.805 -3.598 c -0.1 -1.2 0.301 -2.199 1.003 -2.998 c 0.2 0.1 0.501 0.2 0.802 0.3 c 0.902 0.1 1.905 0.3 2.607 0.799 c 0.501 0.4 0.601 0.7 0.702 1.199 c 0.2 0.9 0 2.398 -0.702 3.498 z m 23.663 -37.676 c -2.807 -4.698 -8.422 -5.197 -13.035 -2.899 c -1.704 0.9 -0.802 3.298 0.903 3.398 c 2.306 0.1 5.615 0.1 6.617 2.499 c 1.103 2.498 0 5.196 -2.607 6.196 c -5.013 1.998 -9.826 -3.998 -7.018 -8.395 c 0.702 -1.2 -1.103 -2.198 -1.905 -1.1 c -2.407 3.599 -2.708 7.896 0.1 11.394 c 3.008 3.697 8.021 4.897 12.233 2.798 c 5.414 -2.399 7.72 -8.795 4.712 -13.891 z m -82.521 62.76 c -0.802 0.1 -1.504 0.8 -1.504 1.599 c -0.3 -0.1 -0.501 -0.1 -0.802 0.1 c -3.51 1.599 -5.214 5.297 -5.013 8.994 c 0.2 3.798 2.707 7.496 7.019 7.396 c 4.913 -0.2 8.623 -4.498 8.723 -9.195 c 0.1 -4.397 -3.51 -9.194 -8.423 -8.894 z m -0.601 13.492 c -1.905 0.099 -2.808 -1.999 -3.109 -3.598 c -0.4 -2.299 0.401 -4.997 2.607 -6.096 c 0.401 -0.2 0.602 -0.5 0.602 -0.9 c 1.805 1.5 3.41 3.498 3.71 5.897 c 0.3 2.298 -1.404 4.597 -3.81 4.697 z m 34.592 -15.391 c -0.701 0.2 -1.103 0.8 -1.103 1.4 c -5.414 3.197 -5.414 13.291 1.404 14.89 c 4.813 1.099 9.626 -3.598 9.626 -8.195 s -5.314 -9.294 -9.927 -8.095 z m 0.702 11.093 c -2.907 -1 -3.108 -6.296 -0.902 -8.095 c 1.805 1.3 4.412 2.898 4.311 5.397 c 0 1.4 -1.804 3.198 -3.409 2.698 z M 8.038 95.653 c -3.208 -0.5 -5.113 1.999 -5.815 4.797 c -0.903 3.498 -0.401 7.895 2.607 10.393 c 4.612 3.798 10.528 0.5 12.232 -4.497 c 2.006 -5.496 -2.807 -11.992 -9.024 -10.693 z m 4.412 9.994 c -1.103 2.398 -3.81 3.298 -5.816 1.299 c -1.504 -1.499 -2.105 -3.798 -2.005 -5.796 c 0 -1.3 0.501 -3.099 1.604 -3.798 c 0 0.5 0.2 1 0.702 1.2 c 3.008 1.298 7.22 3.297 5.515 7.095 z M 132.972 83.86 c -1.403 -2.198 -4.211 -4.597 -6.918 -4.197 c -0.602 0.1 -0.903 0.5 -1.103 0.9 c -0.201 0 -0.301 -0.1 -0.501 0 c -6.418 1.399 -10.729 11.792 -4.011 15.59 c 4.512 2.598 10.628 -0.1 12.934 -4.398 c 1.204 -2.398 1.103 -5.396 -0.401 -7.894 z m -5.314 5.397 c -0.902 1.6 -3.81 3.198 -5.515 1.899 c -3.008 -2.299 -0.2 -7.595 2.808 -8.395 c 0.902 2.099 4.011 4.098 2.707 6.496 z m -86.03 34.378 c -1.604 -5.796 -7.72 -5.196 -11.832 -2.598 c -0.3 -0.3 -0.802 -0.5 -1.303 -0.1 c -3.108 2.299 -4.01 5.697 -2.306 9.094 c 1.604 3.198 5.214 5.597 8.823 4.797 c 4.713 -0.999 7.821 -6.695 6.618 -11.193 z m -7.921 7.496 c -3.61 0.499 -6.819 -3.998 -5.214 -6.996 c 0.2 0.2 0.501 0.3 0.802 0.3 c 2.406 -0.1 7.42 -2.898 8.122 0.999 c 0.501 2.099 -1.304 5.397 -3.71 5.697 z m 43.616 -9.794 c -1.203 -3.598 -5.715 -4.997 -9.124 -4.397 c -0.401 0.1 -0.702 0.2 -0.802 0.399 c -0.3 -0.599 -1.203 -0.999 -1.905 -0.499 c -3.309 2.598 -5.816 6.096 -3.81 10.393 c 1.804 3.698 6.116 4.997 9.926 3.598 c 3.61 -1.499 7.12 -5.397 5.715 -9.494 z m -7.52 5.097 c -1.704 0.699 -3.71 0.299 -4.913 -1.2 c -2.005 -2.498 0.1 -5.196 2.106 -6.895 c 0.1 0.599 0.501 1.199 1.103 1.399 c 1.403 0.599 3.71 1.199 4.412 2.698 c 0.902 1.799 -1.304 3.498 -2.708 3.998 z m 47.728 -8.995 c -1.303 -4.097 -6.818 -6.596 -10.628 -4.297 c -0.602 -0.2 -1.304 0 -1.805 0.6 c -2.006 2.698 -2.707 6.695 -1.805 9.993 c 1.003 3.698 4.512 5.997 8.322 4.498 c 4.211 -1.599 7.42 -6.197 5.916 -10.794 z m -8.723 5.797 h -0.201 c -0.1 -0.1 -0.301 -0.2 -0.401 -0.3 c -0.501 -0.5 -0.802 -1.199 -1.003 -1.899 c -0.401 -1.399 -0.501 -2.798 -0.1 -4.097 c 1.705 0.599 3.81 0.699 4.613 2.498 c 1.002 1.799 -1.404 3.298 -2.908 3.798 z M 66.194 11.906 C 65.09 7.908 59.676 3.71 55.565 6.409 c -0.2 0.1 -0.4 0.3 -0.601 0.5 c -0.602 -0.5 -1.404 -0.6 -2.106 0.1 c -3.008 2.698 -4.311 6.896 -2.908 10.693 c 1.504 4.197 5.916 6.096 10.127 4.597 c 4.312 -1.499 7.42 -5.696 6.117 -10.393 z m -8.122 5.097 c -4.813 1.499 -5.615 -4.897 -3.008 -7.596 c 0.1 0.2 0.3 0.3 0.501 0.5 c 1.805 1 4.011 1.2 4.913 3.198 c 0.903 1.899 -0.601 3.398 -2.406 3.898 z M 105.8 6.31 C 104.095 2.011 99.483 -0.587 94.77 0.112 c -0.902 0.1 -1.203 1.1 -0.902 1.9 c -3.209 2.198 -5.314 5.596 -4.512 9.793 c 0.902 4.997 5.815 8.195 10.829 6.496 c 4.812 -1.8 7.52 -7.296 5.615 -11.993 z m -6.919 6.795 c -2.507 1.2 -4.713 -0.7 -5.515 -2.998 c -0.902 -2.698 0.602 -5.097 2.607 -6.696 c 1.705 0.8 3.41 1.7 4.412 3.398 c 1.203 2.199 1.003 4.997 -1.504 6.296 z" stroke-linecap="round" />
</g>
</svg>